<?xml version="1.0" encoding="UTF-8" standalone="no"?>
<svg
   xmlns:dc="http://purl.org/dc/elements/1.1/"
   xmlns:cc="http://creativecommons.org/ns#"
   xmlns:rdf="http://www.w3.org/1999/02/22-rdf-syntax-ns#"
   xmlns:svg="http://www.w3.org/2000/svg"
   xmlns="http://www.w3.org/2000/svg"
   viewBox="0 0 1365.3333 1365.3333"
   height="1365.3333"
   width="1365.3333"
   xml:space="preserve"
   id="svg2"
   version="1.1"><metadata
     id="metadata8"><rdf:RDF><cc:Work
         rdf:about=""><dc:format>image/svg+xml</dc:format><dc:type
           rdf:resource="http://purl.org/dc/dcmitype/StillImage" /></cc:Work></rdf:RDF></metadata><defs
     id="defs6" /><g
     transform="matrix(1.3333333,0,0,-1.3333333,0,1365.3333)"
     id="g10"><path
       id="path12"
       style="fill:#ffffff;fill-opacity:1;fill-rule:nonzero;stroke:none"
       d="M 0,1024 V 0 H 1024 V 1024 H 0" /><path
       id="path14"
       style="fill:#26a7fd;fill-opacity:1;fill-rule:nonzero;stroke:none"
       d="m 158,492 c -8,9.211 -17.003,17.269 -24.5,27 -15.761,20.455 -26.306,44.224 -33.075,69 -5.633,20.618 -6.466,42.858 -4.5,64 1.976,21.254 7.9,41.65 16.766,61 8.967,19.569 21.299,37.642 36.309,53 22.851,23.238 51.836,40.879 83,50.229 65.197,19.561 139,-0.299 186.996,-48.233 C 441.442,745.55 457.198,717.99 467,688 c 9.381,-28.703 10.488,-60.52 4.6,-90 -5.299,-26.535 -15.663,-52.317 -31.69,-74.286 C 431.734,512.506 420.909,503.228 413,492 c 24.656,15.42 44.61,42.736 58,68 45.759,85.378 26.623,194.702 -46.424,258.742 C 412,829.759 397.965,839.741 383,847.247 c -17.415,8.734 -35.817,15.753 -55,19.364 -23,4.284 -45.819,6.062 -69,3.103 -23.027,-2.939 -46.192,-9.528 -67,-19.884 C 169.424,838.595 148.303,823.481 131,805 73,742.777 57.415,649.4 92.92,572 c 10.524,-23 25.037,-44.273 43.079,-62 6.638,-6.501 13.609,-13.82 22.001,-18 m 137,277 1,-1 -1,1 m -1,-2 C 283.621,753.495 275.345,737.933 267.231,723 247.26,686.249 231,645.303 231,603 c 0,-21.304 6.181,-38.766 18.579,-56 4.421,-6.348 9.358,-13.334 16.421,-17 -0.389,9 -3,17.972 -3.83,27 -1.413,14.839 -1.17,31.44 2.041,46 2.061,9.679 5.705,21.967 15.789,26 13.547,5.75 21.757,-9.195 24.522,-20 6.374,-25 2.478,-54.377 -3.522,-79 11.696,4.594 19.825,20.339 25.244,31 7.593,14.938 12.2,31 10.586,48 -1.455,15.232 -8.596,30 -14.497,44 -8.532,20.178 -16.758,40.945 -22.909,62 -2.89,9.894 -5.931,20.653 -6.424,31 -0.249,6.576 2.392,14.908 1,21 M 282,510.576 C 256.237,507.183 234.932,490.849 228,465 c -2.326,-9.467 -1,-20.277 -1,-30 V 380 277 c 0,-17.047 -1.668,-35.056 0.174,-52 1.826,-17.8 16.751,-32.245 32.826,-38 5.399,-2 12.272,-3.822 18,-2.466 10.75,2.466 15.676,15.726 7.606,23.987 C 281,213.2 275.694,212 270,213.789 c -6.4,1.853 -11.705,6.924 -14,13.211 -2,5.868 -1,12.879 -1,19 v 37 125 34 c 0,9.236 -0.189,18.261 5.684,26 14.69,19.357 44.843,19.446 55.988,-4 4.585,-9.645 3.328,-20.632 3.328,-31 v -54 c 0,-8.457 -2.637,-22.419 2,-29.826 6.285,-9.71 21.78,-8.495 25.347,2.826 1.537,4.878 0.653,10.943 0.653,16 v 30 c 0,33.881 8,78.55 -24,101 -5.534,3.982 -11.622,7 -18,9.301 -7.234,2.539 -16.417,3.273 -24,2.275 M 411,492 l -1,-2 c 1.263,0.971 1.392,0.694 1,2 M 392,481.442 C 385.37,480.678 380.923,476.424 379.519,470 376.812,457.624 379,442.656 379,430 c 0,-15.115 -1.559,-31.309 2.785,-46 7.496,-25.355 32.962,-43.441 59.215,-42.741 26.169,0.699 50.528,17.741 57.511,43.741 4.163,15.412 2.489,32.196 2.489,48 0,10.664 0,21.337 -0.004,32 -0.077,6.292 -1.689,12.431 -8,15 C 491,480.935 489,481.47 487,481.515 470.64,481.889 473,462.879 473,452 v -35 c 0,-7.69 0.589,-15.525 -1.559,-23 -4.56,-16 -20.026,-26.105 -36.441,-23.791 -3.43,0.484 -7,1.791 -10,3.499 -22.163,12.238 -18,39.037 -18,60.292 v 16 c 0,11.171 2.917,33.508 -15,31.442 M 567,383 c 14.751,5.368 28.418,15.898 42,23.716 L 641,425 c 6,3.635 12.839,6.851 15,14 2.445,7 -2.448,13.719 -6.818,18.91 C 638.671,470.398 624,478.358 608,480.728 575.352,485.54 541.902,468.989 529.951,437 526,426.794 525.338,415.774 526,405 c 0.882,-13.408 6.521,-26.388 14.598,-37 21.146,-27.78 61.921,-33.789 91.402,-16.715 9.502,5.503 24.853,17.369 24.812,29.715 C 656.78,391 646,397.7 637,393.633 630.352,390.614 626.812,382.94 621,378.61 605.451,367 579.343,365.985 567,383 m 166,10 c -6.385,13.65 -11.683,27.94 -17.065,42 -3.74,9.772 -7.7,19.523 -12.155,29 -2.41,5 -4.587,10.768 -8.964,14.606 -8.431,7.39 -21.571,1.23 -22.426,-9.606 -0.422,-5.352 2.282,-10.251 4.323,-15 2.562,-6 4.892,-12.027 7.287,-18 9.901,-23 19.529,-46 28.8,-69 4.2,-10.542 7.499,-25.325 21.2,-25 13,0.343 15.409,16.318 19.792,26 10.208,22.67 18.712,46 28.544,69 3.877,9 11.664,20.958 11.469,31 C 793.552,478.84 780.971,485.736 772,479.347 765.488,474.687 763.291,465 760.28,458 756.731,449.688 753.497,441.235 749.77,433 743.824,419.863 738.536,406.314 733,393 m 188,-38 c 2.387,-10 14,-18.349 23.532,-10.347 4.436,3.755 5.439,8.853 5.467,14.347 10e-4,23.999 10e-4,48 10e-4,72 0,12.4 1.371,25.699 -0.185,38 -1.367,10.802 -13.618,16.396 -22.63,10 -3.398,-2.404 -4.874,-6.218 -6.185,-10 -11.571,7 -23.432,11.517 -37,12.83 -31.784,3.076 -63.31,-19.583 -72.215,-49.83 -5.067,-17.208 -3.011,-37.13 5.196,-53 9.546,-18.462 28.447,-32.833 49.019,-36.535 6,-1.104 12.788,-0.494 19,-0.465 12.822,0 25.745,5.55 36,13" /><path
       id="path16"
       style="fill:#ffffff;fill-opacity:1;fill-rule:nonzero;stroke:none"
       d="m 554,408 c 22.909,9.588 42.504,26.497 65,37 v 2 c -20.02,12 -47.607,7 -59.64,-14 -4.573,-8.021 -5.36,-16 -5.36,-25 m 321,45.561 c -7.613,-1.186 -14.763,-3.561 -21,-8.171 -4.129,-3.075 -7.548,-7.05 -10.289,-11.39 -19.161,-30.342 7.487,-68.672 42.289,-63.7 5.334,0.7 10.414,2.5 15,5.32 30.473,18.735 25,66.628 -10,76.368 -5.274,1.465 -10.537,2.424 -16,1.573" /><path
       id="path18"
       style="fill:#26a7fd;fill-opacity:1;fill-rule:nonzero;stroke:none"
       d="m 524,298 c -19.488,-23 -35.033,-49.714 -52.718,-74 -5.781,-8 -17.313,-19.299 -11.825,-30 4.333,-8.424 13.428,-8 21.543,-8 h 53 c 7.299,0 17.309,-1.752 23.985,1.688 9.373,4.831 9.562,20.274 0.01,25.133 C 550.634,216.566 537,214 529,214 h -30 c 18.772,23.671 35.286,49.372 52.754,74 5.941,8.396 17.483,19.741 11.928,30.996 C 559.545,327.378 549.966,327 542,327 h -53 c -7.484,0 -17.226,1.602 -24,-2.279 -9.649,-5.549 -9.135,-20.721 1,-25.418 7.56,-3.552 19.797,-1.303 28,-1.303 h 30 M 319,325.466 C 313.427,324 309.417,319.576 308.34,314 305.806,300.883 308,285.358 308,272 c 0,-15.661 -1.564,-32 3.8,-47 9.925,-27.792 40.719,-44 69.2,-38.533 6.21,1.191 12.534,3.533 18,6.533 4.714,2.862 9,6 12.91,10 C 433,224.742 430,252 430,280 v 23 c 0,4.174 0.614,8.966 -0.653,13 -1.689,5.378 -6.713,9.485 -12.347,9.88 C 399.592,327 402,307.41 402,296 v -36 c 0,-8.205 0.336,-17.17 -2.559,-25 -5.464,-14.775 -23.035,-24.589 -38.441,-20.211 -3.177,0.902 -6.258,2.494 -9,4.211 -19.182,12.852 -16,34.956 -16,55 v 23 c 0,10.486 2.676,25.69 -11,28.603 -2,0.397 -4.046,0.328 -6,-0.137" /></g></svg>